<?xml version="1.0" encoding="UTF-8"?><svg id="Layer_2" xmlns="http://www.w3.org/2000/svg" viewBox="0 0 44.28 56"><defs><style>.cls-1{fill:#d51f35;stroke-width:0px;}</style></defs><g id="_デザイン"><path class="cls-1" d="m34.43,48.38c-3.39,3.05-7.77,4.73-12.33,4.73s-8.95-1.68-12.34-4.73c-3.36-3.03-5.49-7.16-5.98-11.64-.11-.99.26-1.97,1.02-2.63.65-.58,1.53-.83,2.4-.74h.03c.07.01.13.03.19.05l.09.03c.06.02,5.91,2.12,14.59,2.12s14.54-2.1,14.59-2.12l.09-.03c.06-.02.12-.04.18-.04h.1c.93-.1,1.83.22,2.49.88.66.66.97,1.57.87,2.49-.49,4.47-2.62,8.61-5.98,11.63ZM10.3,22.81c.72-.86,2.01-.97,2.87-.25l1.87,1.57,1.57-1.87c.72-.86,2.01-.97,2.87-.25.86.72.97,2,.25,2.87l-1.57,1.87,1.87,1.57c.86.72.97,2,.25,2.87-.4.48-.98.73-1.56.73-.46,0-.93-.16-1.31-.48l-1.87-1.57-1.57,1.87c-.4.48-.98.73-1.56.73-.46,0-.93-.16-1.31-.48-.86-.72-.97-2-.25-2.87l1.57-1.87-1.87-1.57c-.86-.72-.98-2.01-.25-2.87Zm12.81,2.76c.06-.05.23-.2.5-.38.93-.68,2.97-1.87,5.6-1.64.02,0,.03,0,.05,0,.02,0,.03,0,.05,0,2.63.23,4.43,1.76,5.23,2.59.23.23.37.4.43.46.71.87.59,2.15-.28,2.86-.43.35-.96.5-1.47.45-.53-.05-1.04-.29-1.4-.74-.01-.01-1.23-1.41-2.91-1.58-1.69-.12-3.13,1.04-3.14,1.05-.43.37-.98.53-1.5.48-.51-.05-1.01-.28-1.37-.7-.73-.85-.64-2.14.22-2.87ZM22.08,0c-4.58,0-6.59,4.95-11.63,11.46C3.51,20.41,0,26.96,0,32.93c0,6.88,2.24,12.74,6.47,16.94,3.98,3.95,9.53,6.13,15.61,6.13h.12c6.08,0,11.63-2.18,15.61-6.13,4.23-4.2,6.47-10.06,6.47-16.94,0-5.97-3.51-12.52-10.45-21.47C28.79,4.95,26.66,0,22.08,0Z"/><path class="cls-1" d="m9.77,37.88c0,.96-.77,1.71-1.82,1.81.01-1.19.14-2.39.38-3.56.87.23,1.44.92,1.44,1.75Zm1.76,8.57c-.2-2.04-.41-4.15-2.01-5.65,1.13-.59,1.85-1.71,1.85-2.92,0-1.07-.56-2.08-1.49-2.72-.51-.34-1.05-.58-1.54-.68-.46-.09-.86-.02-1.14.19-.28.2-.44.54-.49.97-.03.33-.07.66-.11.99-.1.89-.2,1.8-.23,2.72-.02.68,0,1.39.05,2.09.03.37.07.77.12,1.21,0,.04,0,.07.01.11.03.31.07.73.45.91.3.14.77.15,1.04-.08.32-.27.21-.73.15-.97-.08-.34-.14-.68-.18-1.03,1.55,1.12,1.72,2.92,1.9,4.82.02.17.03.33.05.5.05.47.46.72.86.72.03,0,.06,0,.1,0,.42-.04.68-.35.64-.75-.01-.14-.03-.29-.04-.43Z"/><path class="cls-1" d="m24.08,50.62c-.17-.92-.19-1.6-.22-2.47,0-.15,0-.31-.02-.48-.04-1.22-.08-2.46-.1-3.69-.05-2.41-.05-4.21-.02-6.63,0-.42-.32-.69-.65-.78-.38-.1-.74.05-.91.37-.48.93-.93,1.95-1.35,3.04v-.05c-.07-.19-.13-.38-.18-.57l-.13-.44c-.07-.23-.14-.46-.2-.7-.01-.04-.03-.09-.04-.13-.16-.57-.46-1.62-1.38-1.5-.4.06-.74.44-.74.85-.09,5.04-.07,8.43-.02,13.43,0,.29.15.54.4.68.28.16.65.16.91,0,.23-.14.35-.37.35-.65-.03-3.29-.05-6.31-.03-9.59.03.07.06.14.09.21.03.05.06.15.1.25.16.42.29.72.42.84.16.14.34.2.51.19.19-.02.37-.12.51-.31.14-.18.47-.9.54-1.11.03-.1.07-.2.1-.3,0,1.22.02,2.38.05,3.53.03,1.3.07,2.61.12,3.91.01.36.03.62.05.9.01.2.03.41.04.69,0,.07,0,.15,0,.23,0,.46.02,1.03.47,1.37.15.11.33.17.52.17.1,0,.21-.02.31-.05.26-.09.45-.29.51-.54.05-.2.01-.41-.02-.59v-.08Z"/><path class="cls-1" d="m17.1,37.14c0-.3-.15-.55-.4-.69-.27-.15-.63-.15-.89.01-.24.14-.37.39-.37.69.02,1.39.06,2.87.12,4.83.01.34.03.68.04,1.02.05,1.22.11,2.47,0,3.7-.07.82-.29,1.21-.69,1.22-.19,0-.34-.05-.47-.17-.53-.52-.51-2.05-.49-2.87,0-.19,0-.36,0-.48-.06-1.64-.03-3.29,0-4.9.02-.96.04-1.95.04-2.92.01-.3-.11-.54-.35-.69-.26-.16-.62-.17-.89-.02-.26.14-.41.39-.43.7-.07,1.84-.08,4.31-.03,6.15,0,.29.01.58.02.86.01.83.03,1.69.12,2.53.01.14.03.29.04.44.08.95.17,2.02,1.04,2.71.35.28.92.43,1.46.43.47,0,.91-.11,1.17-.33.94-.79,1.04-2.24,1.06-3.54.04-2.12-.01-4.16-.06-6.14-.01-.83-.03-1.68-.05-2.54Z"/><path class="cls-1" d="m34.23,44.73c-.25-.02-.48.09-.61.3-.32.49-.92,1.06-1.28,1.32-.02-.71-.09-2.55-.16-4.48-.08-2.26-.16-4.6-.16-4.76v-.49c0-.53-.41-.81-.82-.81-.42,0-.84.27-.84.81v.7c0,.33.07,2.73.16,5.26.08,2.42.16,4.92.16,5.25,0,.28.13.53.35.67.14.09.31.14.48.14.14,0,.27-.03.4-.09,1.02-.46,2.43-1.79,3.02-2.66.14-.21.16-.44.05-.66-.13-.27-.44-.47-.75-.49Z"/><path class="cls-1" d="m38.32,41.13c-.14-.25-.42-.43-.7-.43-.25,0-.46.12-.59.35l-.05.09c-.13.23-.15.27-.34.53-.22.29-.77.82-.98.79-.01,0-.04,0-.06-.08-.15-.42-.22-1.05-.23-1.47,0-.27-.01-.54-.01-.81.03,0,.05,0,.08-.02l1.27-.35c.51-.14.67-.62.56-1.02-.11-.4-.49-.72-1-.58l-.88.25c0-.06,0-.12,0-.17.01-.47.02-.94.03-1.41.53-.12,1.04-.3,1.53-.54.26-.13.41-.34.43-.6.02-.3-.14-.61-.41-.79-.26-.17-.56-.19-.84-.05-.5.24-1.04.41-1.56.47-.49.06-.81.39-.81.83,0,.02,0,.03,0,.05,0,.02,0,.04,0,.06,0,.68.02,2.4.06,3.77,0,.2,0,.41,0,.63,0,.81,0,1.65.26,2.39.17.51.49.89.91,1.07.17.07.35.11.54.11.23,0,.47-.06.71-.17.95-.45,1.8-1.68,2.04-2.05.18-.27.2-.58.06-.83Z"/><path class="cls-1" d="m26.45,38.1c.67.54,1.27,1.15,1.26,2.03-.01.85-.67,1.56-1.4,1.99.02-1.3.07-2.62.14-4.03Zm.17,11.57c-.11-2.07-.16-3.88-.17-5.64.93.65,1.51,1.29,1.71,2.43.23,1.3-.16,2.84-1.54,3.21Zm1.07-6.64c.43-.35,1.05-1.26,1.06-1.27.34-.62.5-1.27.44-1.83-.09-.77-.42-1.54-.94-2.16-.23-.28-1.07-1.2-2.1-1.37-.21-.03-.61-.06-.88.16-.15.12-.24.3-.26.52-.29,4.72-.29,8.51,0,13.53.01.26.12.46.3.59.17.11.38.16.61.16.32,0,.67-.08.95-.17,2.1-.66,3.21-2.36,2.98-4.55-.18-1.7-1.08-2.66-2.17-3.6Z"/></g></svg>